<?xml version="1.0" encoding="UTF-8" standalone="no"?>
<!-- Created with Inkscape (http://www.inkscape.org/) -->

<svg
   width="108"
   height="108"
   viewBox="0 0 28.574999 28.575001"
   version="1.1"
   id="svg5"
   inkscape:version="1.2.1 (9c6d41e410, 2022-07-14, custom)"
   sodipodi:docname="quill.svg"
   xmlns:inkscape="http://www.inkscape.org/namespaces/inkscape"
   xmlns:sodipodi="http://sodipodi.sourceforge.net/DTD/sodipodi-0.dtd"
   xmlns="http://www.w3.org/2000/svg"
   xmlns:svg="http://www.w3.org/2000/svg">
  <sodipodi:namedview
     id="namedview7"
     pagecolor="#ffffff"
     bordercolor="#111111"
     borderopacity="1"
     inkscape:pageshadow="0"
     inkscape:pageopacity="0"
     inkscape:pagecheckerboard="1"
     inkscape:document-units="px"
     showgrid="false"
     units="px"
     inkscape:object-nodes="true"
     inkscape:snap-nodes="true"
     inkscape:zoom="5.6568542"
     inkscape:cx="52.325902"
     inkscape:cy="60.546018"
     inkscape:window-width="1920"
     inkscape:window-height="1052"
     inkscape:window-x="1920"
     inkscape:window-y="28"
     inkscape:window-maximized="1"
     inkscape:current-layer="layer1"
     inkscape:showpageshadow="0"
     inkscape:deskcolor="#d1d1d1" />
  <defs
     id="defs2">
    <clipPath
       clipPathUnits="userSpaceOnUse"
       id="clipPath1083">
      <rect
         style="fill:#000000;fill-opacity:1;stroke:#ff9800;stroke-width:0.186876;stroke-miterlimit:4;stroke-dasharray:none"
         id="rect1085"
         width="37.845512"
         height="34.295624"
         x="-37.988056"
         y="-5.779016" />
    </clipPath>
    <clipPath
       clipPathUnits="userSpaceOnUse"
       id="clipPath1439">
      <path
         style="fill:#d8e1ff;fill-opacity:1;stroke-width:0.115586"
         d="m -35.074352,44.510436 c 0.0013,-0.04768 0.405151,-0.94375 0.897448,-1.99127 0.658921,-1.402069 0.970886,-1.942933 1.182394,-2.049947 0.287131,-0.145277 4.275024,-0.224795 4.275024,-0.08525 0,0.03495 -0.07863,0.215603 -0.174752,0.401468 l -0.174755,0.337939 -1.703517,0.03197 -1.70352,0.03198 -0.599519,1.213649 c -0.642991,1.301652 -0.673897,1.387033 -0.502047,1.387033 0.06165,0 0.293034,-0.391636 0.514191,-0.87031 0.510011,-1.10385 0.723892,-1.210239 2.43304,-1.210239 0.694446,0 1.217363,0.04731 1.217363,0.110149 0,0.06057 -0.06036,0.242628 -0.134138,0.404551 -0.128484,0.281995 -0.175993,0.294481 -1.126964,0.296174 -0.546055,7.94e-4 -1.054375,0.04089 -1.129604,0.08875 -0.07523,0.04785 -0.329745,0.515165 -0.565602,1.038503 l -0.428824,0.951521 h -1.13929 c -0.626608,0 -1.138227,-0.03901 -1.136928,-0.08669 z m 4.679479,-0.14641 c 0.191397,-0.60303 0.998564,-2.173483 1.220227,-2.374111 0.209978,-0.190056 0.459909,-0.230968 1.623126,-0.265716 1.45334,-0.04342 1.482187,-0.03185 1.240787,0.497975 -0.128809,0.282707 -0.174172,0.294407 -1.141706,0.294407 -0.670412,0 -1.044326,0.04835 -1.117412,0.144481 -0.06041,0.07948 -0.287843,0.547529 -0.505397,1.040149 l -0.395544,0.895664 -0.499033,1.14e-4 c -0.447826,1.11e-4 -0.491437,-0.02381 -0.425048,-0.232971 z m 3.486235,0.156046 c -0.168135,-0.168137 -0.0565,-0.62865 0.38304,-1.580012 0.340148,-0.736248 0.528487,-1.012825 0.722413,-1.060887 0.144274,-0.03573 0.938494,-0.05 1.764934,-0.03167 l 1.502617,0.03334 0.03438,0.294907 c 0.04046,0.347099 -0.578617,1.787168 -0.929092,2.161294 -0.229623,0.245115 -0.334401,0.260067 -1.822422,0.260067 -0.868333,0 -1.613468,-0.03468 -1.655849,-0.07706 z m 3.047871,-1.261769 c 0.124885,-0.291343 0.227066,-0.579702 0.227066,-0.640786 0,-0.06394 -0.355561,-0.09666 -0.837999,-0.07711 l -0.837999,0.03394 -0.255305,0.520139 c -0.140415,0.286075 -0.257446,0.559147 -0.260067,0.606827 -0.0026,0.04768 0.387186,0.08668 0.866238,0.08668 h 0.871003 z m 0.920583,1.29031 c 0,-0.02668 0.283019,-0.650841 0.628935,-1.387031 l 0.628934,-1.338519 h 1.678715 c 2.15596,0 2.149026,-0.0078 1.415555,1.593059 l -0.514622,1.123209 -0.529299,0.03512 -0.529306,0.03512 0.454629,-0.988716 0.454627,-0.988711 h -0.904454 -0.904454 l -0.437779,0.982483 -0.437777,0.982477 h -0.501853 c -0.276016,0 -0.501851,-0.02185 -0.501851,-0.04851 z m 4.54788,-0.551924 c 0.902758,-2.020847 1.035834,-2.229297 1.448392,-2.268736 0.214691,-0.02053 0.42953,0.0054 0.477419,0.05779 0.04789,0.0523 -0.190772,0.693269 -0.530358,1.42435 l -0.617428,1.329235 -0.525979,0.0353 -0.525981,0.0353 z m 1.601293,0.461735 c -0.206435,-0.206433 -0.187754,-0.279765 0.39899,-1.566193 l 0.540366,-1.184756 h 0.501244 c 0.275685,0 0.501245,0.02082 0.501245,0.04628 0,0.02548 -0.205674,0.493577 -0.457052,1.040272 l -0.457053,0.99399 h 0.902934 0.90293 l 0.476545,-1.040276 0.476545,-1.040273 h 0.464609 c 0.255533,0 0.464607,0.05194 0.464607,0.115428 0,0.232918 -0.960771,2.262055 -1.19042,2.514155 -0.223532,0.245383 -0.325833,0.260072 -1.811847,0.260072 -1.070837,0 -1.619334,-0.04439 -1.713643,-0.138705 z m 3.906808,0.07517 c 0,-0.03495 0.07937,-0.216993 0.176348,-0.404556 l 0.176347,-0.341016 h 1.441853 c 1.7455025,0 1.9647775,-0.208391 0.26939,-0.256021 -1.447174,-0.04067 -1.552597,-0.132922 -1.145368,-1.002364 0.198273,-0.423328 0.365704,-0.61314 0.618581,-0.701294 0.308992,-0.107717 3.5486313,-0.181049 3.5486313,-0.08033 0,0.02228 -0.0571,0.204351 -0.126891,0.404556 l -0.1268939,0.364006 h -1.426695 c -0.8264524,0 -1.4567564,0.04863 -1.4981344,0.115583 -0.04559,0.07378 0.302761,0.115583 0.962854,0.115583 0.8365043,0 1.0851174,0.04115 1.3000654,0.215215 0.2652041,0.214749 0.2653361,0.216368 0.06095,0.751501 -0.3212209,0.841105 -0.4372809,0.882666 -2.4651874,0.882666 -0.971229,0 -1.765865,-0.02857 -1.765865,-0.06354 z m -4.212532,-3.317362 c 0.133929,-0.436861 0.291544,-0.549034 0.771469,-0.549034 0.393294,0 0.448399,0.02952 0.377286,0.202277 -0.04581,0.111254 -0.109446,0.293296 -0.141432,0.404553 -0.04417,0.153633 -0.181874,0.202277 -0.572607,0.202277 -0.480065,0 -0.509116,-0.01738 -0.434716,-0.260073 z M -35.693173,28.915961 c -0.04237,-0.04237 -0.07515,-1.173679 -0.07281,-2.513998 l 0.0043,-2.436938 1.700655,-1.360615 c 0.935352,-0.748342 1.8957,-1.52059 2.134095,-1.716105 l 0.433448,-0.355486 v 4.230101 4.230098 h -2.061281 c -1.133711,0 -2.095963,-0.03468 -2.138342,-0.07706 z m 5.702245,-4.75946 V 19.31998 l 0.569764,-0.480438 c 0.313378,-0.264239 0.593418,-0.480438 0.622319,-0.480438 0.02887,0 0.559898,0.625593 1.179999,1.390204 0.620101,0.764616 1.276304,1.515456 1.458235,1.668536 l 0.330774,0.278334 v 3.648418 3.648422 h -2.080548 -2.080543 z m 5.663712,1.261814 v -3.574697 l 0.323909,-0.161591 c 0.178157,-0.08887 1.049383,-0.751706 1.936067,-1.472967 0.886686,-0.721256 1.677171,-1.360904 1.756636,-1.421438 0.115069,-0.08767 0.144484,0.939839 0.144484,5.047664 v 5.157732 h -2.080548 -2.080548 z m 5.69154,-2.22995 0.02997,-5.804647 2.021628,-1.650647 c 1.111892,-0.907858 2.061143,-1.650647 2.109447,-1.650647 0.0483,0 0.08781,3.354883 0.08781,7.455295 v 7.455299 h -2.139413 -2.139406 z m 5.635884,-2.27761 v -8.082269 l 0.776956,-0.644902 c 0.720449,-0.598 0.80661,-0.638567 1.184758,-0.557787 0.516871,0.110416 1.4520413,0.112014 1.9393154,0.0035 l 0.375657,-0.08379 v 8.723841 8.723855 h -2.1383454 -2.138341 v -8.082298 z m -24.069312,1.775273 c -0.34236,-0.185757 -0.499179,-0.587577 -0.393554,-1.008404 0.06979,-0.278097 8.174593,-6.984508 8.675155,-7.178355 0.538012,-0.208358 0.792872,4.23e-4 2.375868,1.947907 0.854826,1.051562 1.598184,1.911928 1.651901,1.911928 0.05373,0 2.518552,-1.972721 5.477414,-4.383828 l 5.37974,-4.3838341 0.638873,0.6388741 c 0.621556,0.621556 0.63301,0.644526 0.4225,0.847469 -0.861602,0.830621 -11.776622,9.593041 -11.949694,9.593041 -0.464369,0 -0.799518,-0.315641 -2.291902,-2.158466 -1.393142,-1.720295 -1.560441,-1.887936 -1.733788,-1.737355 -0.81792,0.710523 -7.207403,5.864738 -7.394244,5.964731 -0.309087,0.165422 -0.473369,0.155137 -0.858269,-0.05372 z M -4.7061276,13.87931 c -0.111048,-0.02468 -0.6974329,-0.600233 -1.303075,-1.279013 -1.1970941,-1.341648 -1.292723,-1.599871 -0.743598,-2.007903 0.2040361,-0.151613 0.368396,-0.190571 0.5358151,-0.127017 0.1328259,0.05041 0.7155728,0.619254 1.2949928,1.264073 0.83039,0.924108 1.0534981,1.245455 1.0534981,1.517361 0,0.458267 -0.3687281,0.736691 -0.837633,0.632499 z m -6.2131164,-3.481219 c -2.587791,-0.852 -3.449267,-3.8157001 -1.678776,-5.7754209 0.933073,-1.0327992 2.6631534,-1.414835 3.8952185,-0.860144 0.7599069,0.342124 1.5245998,1.0885908 1.8419829,1.7980819 0.372931,0.8336661 0.3710879,2.1067119 -0.0043,2.885359 -0.3328929,0.6907199 -1.0238869,1.3866259 -1.703511,1.71563 -0.5672418,0.274598 -1.8446604,0.403108 -2.3507284,0.236494 z M -18.81897,9.132022 c -0.249473,-0.2756691 -0.244147,-0.746661 0.01096,-0.9706689 0.2507,-0.2201212 3.071512,-0.8276061 3.427754,-0.738193 0.364314,0.09143 0.564394,0.5647639 0.395461,0.9355359 -0.152289,0.334237 -0.101617,0.315322 -1.85629,0.6928869 -1.618918,0.348352 -1.731314,0.3529232 -1.977908,0.08044 z M -3.5217375,8.635683 c -1.1718952,-0.1740101 -1.4830351,-0.260854 -1.647103,-0.4597299 -0.2679562,-0.3248181 -0.255248,-0.491866 0.06581,-0.865128 l 0.268092,-0.3116691 1.648432,0.23798 c 1.7500541,0.2526541 2.0920721,0.4015089 2.0920721,0.9105249 0,0.3503581 -0.389737,0.7376962 -0.722414,0.7179752 -0.143037,-0.0084 -0.910238,-0.1119621 -1.7048921,-0.2299531 z M -16.513888,4.307763 c -1.644043,-0.897132 -1.687274,-0.9308489 -1.687274,-1.3160031 0,-0.4107919 0.26725,-0.6991069 0.648026,-0.6991069 0.280294,0 2.569286,1.1438479 2.964038,1.481179 0.251469,0.2148911 0.26264,0.7536669 0.02061,0.9956609 -0.299857,0.2998592 -0.742157,0.194885 -1.945431,-0.4617299 z m 10.6804303,0.1810221 c -0.2546678,-0.254663 -0.289084,-0.4849191 -0.119766,-0.8012941 0.162378,-0.303399 2.7029881,-1.857182 3.0367052,-1.857182 0.5358499,0 0.8491699,0.641924 0.5217429,1.068924 -0.209789,0.2735889 -2.7615879,1.8207249 -3.00304,1.8207249 -0.1124609,0 -0.3084981,-0.1040238 -0.4356421,-0.2311728 z M -12.6753,2.205961 c -0.220025,-0.256245 -1.249177,-2.84487062 -1.249177,-3.14204903 0,-0.52955357 0.81814,-0.79418197 1.185115,-0.38332337 0.234376,0.2624003 1.242192,2.7757853 1.242192,3.0978924 0,0.544498 -0.821661,0.842637 -1.17813,0.42748 z m 3.7609763,-0.213275 c -0.19045,-0.290661 -0.1806728,-0.348518 0.3151992,-1.86545122 0.5498399,-1.68203488 0.7603469,-1.97330298 1.32393,-1.83185168 0.5824548,0.1461857 0.5908509,0.4800658 0.05301,2.10761539 -0.2699149,0.81680721 -0.5700699,1.57612751 -0.667004,1.68737851 -0.268818,0.308515 -0.7916439,0.258691 -1.025153,-0.0977 z"
         id="path1441" />
    </clipPath>
    <linearGradient
       id="rect8192_1_"
       gradientUnits="userSpaceOnUse"
       x1="-111.7225"
       y1="241.8037"
       x2="-111.9427"
       y2="255.82561"
       gradientTransform="matrix(1.1258452,0,0,-1.1125121,264.49713,351.09111)">
      <stop
         offset="0"
         style="stop-color:#358C7B"
         id="stop3427" />
      <stop
         offset="0.5256"
         style="stop-color:#33A65E"
         id="stop3429" />
    </linearGradient>
    <linearGradient
       id="rect8199_1_"
       gradientUnits="userSpaceOnUse"
       x1="-123.8913"
       y1="223.6279"
       x2="-99.772499"
       y2="235.9171"
       gradientTransform="matrix(1.1258452,0,0,-1.1125121,264.49713,351.09111)">
      <stop
         offset="0"
         style="stop-color:#222B90"
         id="stop3433" />
      <stop
         offset="1"
         style="stop-color:#367B99"
         id="stop3435" />
    </linearGradient>
    <linearGradient
       id="rect8206_1_"
       gradientUnits="userSpaceOnUse"
       x1="-208.4319"
       y1="210.77251"
       x2="-185.03191"
       y2="210.77251"
       gradientTransform="matrix(1.1258452,0,0,-1.1125121,264.49713,351.09111)">
      <stop
         offset="0"
         style="stop-color:#FF9900"
         id="stop3439" />
      <stop
         offset="1"
         style="stop-color:#FF8000"
         id="stop3441" />
    </linearGradient>
    <linearGradient
       id="rect8213_1_"
       gradientUnits="userSpaceOnUse"
       x1="-180.1319"
       y1="210.77251"
       x2="-156.7319"
       y2="210.77251"
       gradientTransform="matrix(1.1258452,0,0,-1.1125121,264.49713,351.09111)">
      <stop
         offset="0"
         style="stop-color:#FF8000"
         id="stop3445" />
      <stop
         offset="1"
         style="stop-color:#CC1953"
         id="stop3447" />
    </linearGradient>
    <linearGradient
       id="rect8220_1_"
       gradientUnits="userSpaceOnUse"
       x1="-151.83189"
       y1="210.77251"
       x2="-128.4319"
       y2="210.77251"
       gradientTransform="matrix(1.1258452,0,0,-1.1125121,264.49713,351.09111)">
      <stop
         offset="0"
         style="stop-color:#CC1953"
         id="stop3451" />
      <stop
         offset="1"
         style="stop-color:#241284"
         id="stop3453" />
    </linearGradient>
    <linearGradient
       id="rect8227_1_"
       gradientUnits="userSpaceOnUse"
       x1="-123.5596"
       y1="210.77251"
       x2="-100.1596"
       y2="210.77251"
       gradientTransform="matrix(1.1258452,0,0,-1.1125121,264.49713,351.09111)">
      <stop
         offset="0"
         style="stop-color:#222B90"
         id="stop3457" />
      <stop
         offset="1"
         style="stop-color:#3559A6"
         id="stop3459" />
    </linearGradient>
    <linearGradient
       id="rect8234_1_"
       gradientUnits="userSpaceOnUse"
       x1="-152.75549"
       y1="226.0811"
       x2="-127.5083"
       y2="233.4639"
       gradientTransform="matrix(1.1258452,0,0,-1.1125121,264.49713,351.09111)">
      <stop
         offset="0"
         style="stop-color:#CC1953"
         id="stop3463" />
      <stop
         offset="1"
         style="stop-color:#241284"
         id="stop3465" />
    </linearGradient>
    <linearGradient
       id="rect8241_1_"
       gradientUnits="userSpaceOnUse"
       x1="-180.9648"
       y1="234.33411"
       x2="-155.899"
       y2="225.2108"
       gradientTransform="matrix(1.1258452,0,0,-1.1125121,264.49713,351.09111)">
      <stop
         offset="2.669841e-03"
         style="stop-color:#FFCC00"
         id="stop3469" />
      <stop
         offset="0.9999"
         style="stop-color:#CE1938"
         id="stop3471" />
    </linearGradient>
    <linearGradient
       id="rect8248_1_"
       gradientUnits="userSpaceOnUse"
       x1="-178.1651"
       y1="257.75391"
       x2="-158.6987"
       y2="239.791"
       gradientTransform="matrix(1.1258452,0,0,-1.1125121,264.49713,351.09111)">
      <stop
         offset="2.669841e-03"
         style="stop-color:#FFD100"
         id="stop3475" />
      <stop
         offset="1"
         style="stop-color:#FD5A22"
         id="stop3477" />
    </linearGradient>
  </defs>
  <g
     inkscape:label="Layer 1"
     inkscape:groupmode="layer"
     id="layer1">
    <g
       id="g2994-2-6"
       transform="matrix(0.96141538,0,0,0.96141538,-65.793896,-82.387099)"
       inkscape:label="stem_hairs1">
      <path
         id="path1744-3-56-2-7-1"
         style="color:#000000;display:inline;fill:#a4c639;fill-opacity:1;stroke-width:0.529167;stroke-linecap:square;stroke-miterlimit:3;paint-order:markers stroke fill"
         inkscape:label="path1744"
         d="m 94.913932,85.694171 c -0.338653,-0.01321 -1.027864,0.188615 -1.263488,0.251665 -2.735164,0.732033 -5.890263,2.571219 -7.498251,4.742863 -0.216915,0.292953 -0.349619,0.634753 -0.456819,0.973067 -0.0125,0.03961 -0.01799,-0.08103 -0.02429,-0.121957 -0.04235,-0.274647 -0.125565,-0.519323 0.04031,-1.161686 0.05143,-0.199194 -0.601624,0.212381 -0.770495,0.361735 -1.053292,0.931554 -1.610712,1.466551 -2.325956,2.699577 -0.340732,0.587389 -0.870232,1.824977 -0.870232,2.501656 0,0.09847 0.02091,0.842044 -0.04289,0.849044 -0.2777,0.02928 -0.708443,-0.801272 -0.722953,-1.628841 0.04953,-0.23616 -1.016253,0.858267 -1.829346,2.166276 -0.655529,1.054529 -1.594309,2.453427 -1.939417,3.43648 -0.06973,0.19862 0.166276,0.64161 0.294556,1.15549 0.137194,0.54959 0.170454,1.1743 0.181384,1.46864 0.0056,0.15157 -0.51795,-0.16687 -0.746724,-0.72243 -0.211669,-0.4697 -0.297915,-0.73502 -0.326595,-0.69092 -1.03166,1.5877 -1.489872,3.40487 -1.823661,6.23218 -0.14185,1.20152 -0.227053,1.34568 -0.637171,2.60242 -0.485106,1.48655 -1.149739,2.28993 -1.665014,2.96365 -0.436128,0.57023 -1.056173,1.64527 -0.983403,1.64227 l 0.419613,-0.0202 c 0,0 0.829908,-0.94491 1.141015,-1.33583 0.251423,-0.31594 1.25119,-1.51466 2.013314,-2.30219 0.661266,-0.68332 1.674811,-1.37771 1.95647,-1.4981 1.829723,-0.78208 3.140325,-0.55124 3.433382,-1.20871 -0.287616,-0.27491 -0.341171,-0.31958 -0.553455,-0.59583 -0.309042,-0.40216 -0.351546,-0.50792 -0.401525,-0.60772 0.121882,-0.0601 0.547204,0.26685 1.087788,0.46716 0.716585,0.26557 0.79221,0.34544 1.027845,0.17725 0.344828,-0.24614 1.524495,-1.04566 2.240173,-1.65106 0.314725,-0.26624 1.084868,-1.04408 1.53324,-1.61696 0.692268,-0.8845 0.924272,-1.24594 1.196826,-1.90376 0.06112,-0.14752 -0.426645,-0.10444 -1.138432,-0.33951 -0.715527,-0.2363 -1.446343,-0.65538 -1.390613,-0.74208 0.0482,-0.075 1.007405,0.12269 1.515153,0.11369 0.421612,-0.008 1.213813,-0.11533 1.666048,-0.4656 0.760901,-0.58934 1.326664,-1.3931 1.773019,-2.024168 0.81851,-1.157249 1.375647,-2.465545 1.345137,-2.655135 -0.02231,-0.13876 -0.607333,0.0055 -1.151867,-0.01705 -0.213198,-0.0088 -0.441585,-0.06154 -0.611849,-0.149345 -0.113897,-0.05873 0.52196,-0.271747 0.657324,-0.334347 0.243313,-0.11256 0.485129,-0.222574 0.717786,-0.355534 1.292869,-0.738849 2.034826,-2.375097 2.515608,-3.676778 0.08675,-0.234908 -0.331271,-0.199461 -0.860929,-0.253731 -0.448627,-0.04596 -0.860725,-0.180558 -0.941545,-0.217558 -0.04229,-0.01936 0.926891,-0.257381 1.24902,-0.357601 0.265371,-0.08256 0.634061,-0.308538 0.738456,-0.418579 0.831266,-0.876203 0.569389,-3.162208 0.646989,-3.637504 0.06606,-0.404653 0.19753,-0.904675 0.718302,-1.441772 0.289991,-0.299082 1.14975,-0.494454 1.037146,-0.604615 -0.03093,-0.03026 -0.09083,-0.04501 -0.168982,-0.04806 z m -3.231844,3.01687 c 0.01113,-0.0017 0.02005,-3.58e-4 0.02584,0.0036 0.01566,0.01075 -0.833588,0.92948 -0.880567,0.984436 -1.01292,1.18487 -2.028419,2.377159 -2.979146,3.619417 -1.301188,1.700183 -2.146551,2.622108 -3.207556,4.168221 -0.818094,1.192129 -1.620459,2.228515 -2.491838,3.392035 -1.174549,1.56835 -2.300133,3.07846 -3.427181,4.67207 -1.01316,1.43258 -1.739938,2.51224 -2.475301,3.41633 0.380771,-1.13612 1.095402,-2.51405 1.946651,-3.79718 0.918324,-1.38424 1.879297,-2.88981 2.75022,-4.15582 0.997783,-1.450417 2.110723,-3.074391 3.186886,-4.45451 0.927582,-1.189571 1.592099,-1.948555 2.772957,-3.266467 1.191676,-1.329987 2.395109,-2.693748 3.774446,-3.834908 0.109603,-0.09067 0.837642,-0.721207 1.00459,-0.747242 z" />
      <path
         style="fill:#a4c639;fill-opacity:1;stroke:none;stroke-width:0.132292;stroke-linecap:round;stroke-miterlimit:3;stroke-dasharray:none;stroke-opacity:1;paint-order:markers stroke fill"
         d="m 73.448951,112.44189 c 0.0052,-0.53045 -0.383169,-0.97042 -0.694806,-1.37256 -0.110863,-0.14306 -0.262049,-0.3367 -0.253871,-0.34232 0.07448,-0.0512 0.167058,0.0699 0.246237,0.11345 0.306856,0.16882 0.849128,0.68964 0.986851,1.00532 0.01672,0.0383 0.02368,0.0815 0.02291,0.12329 -1.03e-4,0.005 -0.06477,0.13366 -0.04963,0.14492 1.51e-4,1.2e-4 0.01924,-0.0405 -0.01908,-0.0584"
         id="path2786-0-2" />
      <path
         style="fill:#a4c639;fill-opacity:1;stroke:none;stroke-width:0.132292;stroke-linecap:round;stroke-miterlimit:3;stroke-dasharray:none;stroke-opacity:1;paint-order:markers stroke fill"
         d="m 74.22013,111.41561 c -0.245217,-0.2178 -0.529402,-0.57514 -0.701682,-0.9245 -0.120101,-0.24355 -0.146555,-0.48322 -0.232769,-0.66902 -0.11152,-0.24035 -0.149679,-0.12053 -0.169803,-0.41507 -0.01032,-0.15101 -0.0426,-0.28873 -0.05537,-0.43817 -0.004,-0.0471 -0.01606,0.096 -0.0038,0.14165 0.04706,0.17534 0.232771,0.43549 0.315004,0.59696 0.138798,0.27257 0.204203,0.63699 0.40845,0.86771 0.218138,0.24641 0.364419,0.2842 0.454261,0.61296"
         id="path2788-9-9"
         sodipodi:nodetypes="csssscssc" />
      <path
         style="fill:#a4c639;fill-opacity:1;stroke:none;stroke-width:0.132292;stroke-linecap:round;stroke-miterlimit:3;stroke-dasharray:none;stroke-opacity:1;paint-order:markers stroke fill"
         d="m 74.350366,110.66584 c -0.160137,0.0533 -0.120644,-0.0562 -0.221033,-0.17782 -0.337793,-0.40932 -0.207241,-0.35148 -0.357953,-0.81609 -0.04616,-0.1423 0.01868,-0.43836 -0.143739,-0.71273 -0.115685,-0.19542 -0.146736,-0.24219 -0.221002,-0.49339 -0.04413,-0.14929 -0.04413,-0.34268 -0.02021,-0.49655 0.02408,-0.15496 0.04912,-0.34386 0.01717,-0.49906 -0.01138,-0.0553 -0.02947,-0.1087 -0.04771,-0.16197 -0.007,-0.0205 -0.0465,-0.0461 -0.02864,-0.0584 0.01243,-0.009 0.0419,0.004 0.05726,-5.3e-4 0.04691,-0.0129 -0.06935,-0.09 0.0076,0.0544 0.07131,0.13379 0.115684,0.25567 0.108799,0.41183 -0.0055,0.12417 -0.03025,0.25008 -0.01146,0.37446 0.05947,0.39329 0.290319,0.45594 0.398406,0.77285 0.137359,0.40272 0.08159,0.83583 0.23722,1.16368 0.147643,0.31101 0.4292,0.45487 0.750158,0.48725"
         id="path2796-3-3"
         sodipodi:nodetypes="csssssssccsscssc" />
      <path
         style="fill:#a4c639;fill-opacity:1;stroke:none;stroke-width:0.132292;stroke-linecap:round;stroke-miterlimit:3;stroke-dasharray:none;stroke-opacity:1;paint-order:markers stroke fill"
         d="m 74.565015,109.59456 c -0.06579,-0.33706 -0.156624,-0.67274 -0.286872,-0.99122 -0.0499,-0.12203 -0.126607,-0.23282 -0.172535,-0.35619 -0.160844,-0.43202 -0.143163,-0.86914 -0.007,-1.30364 0.06155,-0.19645 0.08729,-0.39281 0.10602,-0.59739 0.0067,-0.0725 0.009,-0.14545 0.01017,-0.21816 2.14e-4,-0.0169 -0.01116,-0.063 6.55e-4,-0.0508 0.114465,0.11808 0.197227,0.62912 0.159943,0.77694 -0.04997,0.19812 -0.180143,0.38189 -0.136894,0.59812 0.03111,0.15554 0.178541,0.2911 0.232533,0.44504 0.140193,0.39971 0.204239,0.8029 0.261978,1.21942"
         id="path2800-6-1" />
      <path
         style="fill:#a4c639;fill-opacity:1;stroke:none;stroke-width:0.132292;stroke-linecap:round;stroke-miterlimit:3;stroke-dasharray:none;stroke-opacity:1;paint-order:markers stroke fill"
         d="m 73.842176,112.72384 c 0.676296,0.13854 1.333813,0.38033 2.033009,0.29814 0.141151,-0.0166 0.265627,-0.065 0.400778,-0.10696 0.0057,-0.002 0.08119,-0.034 0.07976,-0.0346 -0.05212,-0.0183 -0.174455,0.003 -0.226882,5.2e-4 -0.21341,-0.0107 -0.653883,-0.0352 -0.849483,-0.12396 -0.635771,-0.0955 -0.693055,-0.0732 -1.249614,-0.25918"
         id="path2822-0-9"
         sodipodi:nodetypes="csccccc" />
      <path
         style="fill:#a4c639;fill-opacity:1;stroke:none;stroke-width:0.132292;stroke-linecap:round;stroke-miterlimit:3;stroke-dasharray:none;stroke-opacity:1;paint-order:markers stroke fill"
         d="m 75.104734,111.6436 c 0.04567,0.0472 0.07201,0.0677 0.129125,0.0893 0.101917,0.0386 0.209603,0.0567 0.311684,0.0967 0.333304,0.13044 0.610148,0.40725 0.844225,0.66758 0.0655,0.0729 0.116282,0.14751 0.193241,0.20805 0.04252,0.0334 0.08936,0.067 0.09351,0.0603 0.0132,-0.0216 0.0026,-0.0506 0.0019,-0.0759 -0.0078,-0.24757 -0.238839,-0.41986 -0.395393,-0.57946 -0.224592,-0.22896 -0.395058,-0.54262 -0.750716,-0.58161 -0.105987,-0.0116 -0.209317,-0.001 -0.314357,-0.001 -0.0078,0 -0.0013,-0.0169 0.0036,-0.0229 0.0027,-0.003 0.0067,0.0106 0.02582,0.0661"
         id="path2832-6-4" />
      <path
         style="fill:#a4c639;fill-opacity:1;stroke:none;stroke-width:0.132292;stroke-linecap:round;stroke-miterlimit:3;stroke-dasharray:none;stroke-opacity:1;paint-order:markers stroke fill"
         d="m 75.926812,110.93658 c 0.122616,0.19662 0.349104,0.28548 0.546782,0.38886 0.263303,0.13771 0.534483,0.26915 0.833533,0.3081 0.220745,0.0287 0.442524,0.0189 0.664337,0.0202 0.07518,5.3e-4 0.529778,0.0248 0.577064,-0.008 0.01125,-0.008 -0.02651,-0.007 -0.04007,-0.008 -0.03509,-0.004 -0.07021,-0.003 -0.105085,-0.006 -0.117501,-0.0107 -0.93146,-0.0786 -1.037823,-0.12716 -0.589689,-0.12988 -0.636667,-0.17466 -0.967647,-0.3235 -0.02662,-0.0135 -0.05375,-0.0261 -0.07926,-0.0416 -0.08201,-0.0498 -0.190992,-0.1191 -0.257366,-0.19183 -0.01969,-0.0216 -0.02429,-0.0539 -0.04096,-0.0774 -0.01667,-0.0235 -0.02643,-0.0143 -0.01246,-0.0263"
         id="path2836-2-7"
         sodipodi:nodetypes="cscccccccsssc" />
      <path
         style="fill:#a4c639;fill-opacity:1;stroke:none;stroke-width:0.132292;stroke-linecap:round;stroke-miterlimit:3;stroke-dasharray:none;stroke-opacity:1;paint-order:markers stroke fill"
         d="m 76.894585,110.35104 c 0.176856,0.16534 0.42488,0.25224 0.667618,0.23951 0.108648,0.026 0.222258,0.0707 0.329948,0.10235 0.156626,0.0459 0.30058,0.0749 0.454894,0.12471 0.271825,0.0878 0.420978,0.16134 0.763449,0.33768 0.0074,0.004 0.149041,0.0401 0.151242,0.0448 0.0022,0.005 -0.0474,-0.003 -0.05575,-0.0128 -0.03143,-0.0356 -0.06422,-0.0699 -0.09539,-0.10571 -0.101803,-0.11705 -0.240205,-0.19767 -0.383489,-0.25513 -0.0944,-0.0378 -0.200287,-0.0501 -0.297325,-0.0812 -0.276254,-0.0887 -0.554959,-0.18497 -0.83733,-0.25168 -0.110592,-0.0261 -0.342237,-0.007 -0.412119,-0.0505 -0.0909,-0.0572 -0.131574,-0.0928 -0.189165,-0.16786 -0.02178,-0.0283 -0.04167,-0.0758 -0.06524,-0.0646"
         id="path2838-6-8"
         sodipodi:nodetypes="cccssscsccsssc" />
      <path
         style="fill:#a4c639;fill-opacity:1;stroke:none;stroke-width:0.132292;stroke-linecap:round;stroke-miterlimit:3;stroke-dasharray:none;stroke-opacity:1;paint-order:markers stroke fill"
         d="m 77.35667,110.11284 c 0.0595,0.005 0.07592,0.002 0.120222,0.0141 0.09901,0.0276 0.189468,0.0794 0.28942,0.10341 0.364262,0.0876 0.748855,0.1003 1.120288,0.13676 0.238937,0.0234 0.483843,0.0772 0.724,0.0388 0.04575,-0.007 0.132284,-0.022 0.175432,-0.0514 0.121113,-0.0826 0.313928,-0.26508 0.480886,-0.16949 0.01897,0.0109 -0.04328,-0.006 -0.06501,-0.009 -0.07381,-0.008 -0.146617,-0.008 -0.220851,-0.008 -0.201115,0.002 -0.402285,0.0259 -0.603779,0.0294 -0.414192,0.007 -0.601694,-0.11907 -0.963551,-0.2934 -0.263459,-0.12693 -0.566518,-0.22186 -0.860251,-0.23834"
         id="path2840-1-4" />
      <path
         style="fill:#a4c639;fill-opacity:1;stroke:none;stroke-width:0.132292;stroke-linecap:round;stroke-miterlimit:3;stroke-dasharray:none;stroke-opacity:1;paint-order:markers stroke fill"
         d="m 76.363451,110.50214 c 0.0228,0.005 0.04608,0.009 0.06831,0.0161 0.109943,0.0366 0.210907,0.0962 0.318543,0.13916 0.349851,0.13939 0.718757,0.23752 1.088865,0.30508 0.121973,0.0222 0.246168,0.0276 0.369053,0.0425 0.02948,0.003 0.09636,0.005 0.08299,0.0322 -0.04103,0.0814 -0.382194,0.10929 -0.442506,0.11194 -0.416138,0.0183 -1.402164,-0.20967 -1.779997,-0.4057 -0.08767,-0.0455 -0.18497,-0.12661 -0.22484,-0.21876 -0.02882,-0.0666 0.105796,-0.0284 0.132278,-0.01"
         id="path2842-8-5" />
      <path
         style="fill:#a4c639;fill-opacity:1;stroke:none;stroke-width:0.132292;stroke-linecap:round;stroke-miterlimit:3;stroke-dasharray:none;stroke-opacity:1;paint-order:markers stroke fill"
         d="m 76.273927,111.49232 c 0.137216,0.15847 0.384937,0.23345 0.577945,0.30013 0.03631,0.0122 0.403279,0.1355 0.441656,0.0939 0.01514,-0.0166 -0.03748,0.0262 -0.05918,0.0319 -0.08177,0.0212 -0.183904,0.008 -0.265052,-0.002 -0.289062,-0.036 -0.573656,-0.15033 -0.839196,-0.26244 -0.251605,-0.10621 -0.531458,-0.26036 -0.716605,-0.4673 -0.05437,-0.0608 -0.132127,-0.19027 -0.09494,-0.20345 0.0484,-0.0171 0.05752,0.05 0.06917,0.0741"
         id="path2844-7-0"
         sodipodi:nodetypes="cccccsssc" />
      <path
         style="fill:#a4c639;fill-opacity:1;stroke:none;stroke-width:0.132292;stroke-linecap:round;stroke-miterlimit:3;stroke-dasharray:none;stroke-opacity:1;paint-order:markers stroke fill"
         d="m 74.739494,111.93782 c 0.172033,0.13489 0.43802,0.22333 0.525889,0.44348 0.02811,0.0704 0.04776,0.13949 0.08336,0.20563 0.02308,0.0429 0.04553,0.0886 0.04857,0.0827 0.0073,-0.0142 -0.0537,-0.0233 -0.0595,-0.026 -0.03888,-0.018 -0.06456,-0.0617 -0.08832,-0.0946 -0.02204,-0.0306 -0.04844,-0.0582 -0.06796,-0.0906 -0.03739,-0.0621 -0.04982,-0.14427 -0.10301,-0.19541 -0.08837,-0.0847 -0.278567,-0.12967 -0.3915,-0.16559 -0.03115,-0.01 -0.214331,-0.0771 -0.20003,-0.0146"
         id="path2852-9-3" />
      <path
         style="fill:#a4c639;fill-opacity:1;stroke:none;stroke-width:0.132292;stroke-linecap:round;stroke-miterlimit:3;stroke-dasharray:none;stroke-opacity:1;paint-order:markers stroke fill"
         d="m 73.407991,112.39547 c -0.155228,0.0207 -0.03747,0.0129 -0.351758,-0.1129 -0.09933,-0.0398 -0.181097,-0.0693 -0.287642,-0.0294 -0.02175,0.008 -0.04242,0.0188 -0.06412,0.0269 -0.0095,0.004 -0.03358,0.002 -0.0285,0.0104 7.94e-4,0.001 0.02606,-5.3e-4 0.02672,-5.3e-4 0.07003,0.001 0.150783,0.0141 0.218178,0.0272 0.147905,0.0289 0.550471,0.19208 0.591312,0.35337"
         id="path2854-2-6" />
      <path
         style="fill:#a4c639;fill-opacity:1;stroke:none;stroke-width:0.132292;stroke-linecap:round;stroke-miterlimit:3;stroke-dasharray:none;stroke-opacity:1;paint-order:markers stroke fill"
         d="m 73.258382,112.82471 c -0.04656,-0.0109 -0.09465,-0.0114 -0.141594,-0.0196 -0.100071,-0.0174 -0.225539,-0.0336 -0.307232,-0.0991 -0.02865,-0.023 -0.04531,-0.0451 -0.06323,-0.0753 -0.0011,-0.002 -0.01497,-0.0443 -0.01336,-0.0435 0.0486,0.0243 0.0619,0.20194 0.08638,0.24538 0.02474,0.0439 0.05993,0.0846 0.09707,0.11809 0.03804,0.0343 0.07007,0.051 0.113096,0.0743 0.01172,0.006 0.04788,0.0176 0.03473,0.0199 -0.01799,0.003 -0.01,-0.012 -0.01159,-0.0168"
         id="path2856-0-1" />
      <path
         style="fill:#a4c639;fill-opacity:1;stroke:none;stroke-width:0.132292;stroke-linecap:round;stroke-miterlimit:3;stroke-dasharray:none;stroke-opacity:1;paint-order:markers stroke fill"
         d="m 73.400868,112.25718 c -0.06561,-0.0633 -0.158215,-0.0778 -0.238664,-0.11657 -0.145683,-0.0703 -0.33174,-0.18161 -0.271608,-0.19917 0.0467,-0.0136 0.113231,0.0972 0.136247,0.12421 0.0797,0.0937 0.173683,0.16202 0.258257,0.24996 0.04413,0.0459 0.07938,0.10062 0.129125,0.14104 0.03183,0.0259 0.07563,0.036 0.10419,0.0655"
         id="path2858-2-0" />
      <path
         style="fill:#a4c639;fill-opacity:1;stroke:none;stroke-width:0.132292;stroke-linecap:round;stroke-miterlimit:3;stroke-dasharray:none;stroke-opacity:1;paint-order:markers stroke fill"
         d="m 73.920044,111.5177 c -0.03887,-0.0634 -0.09288,-0.0908 -0.161184,-0.11749 -0.0024,-7.9e-4 -0.06735,-0.0269 -0.08193,-0.0309 -0.04934,-0.0137 -0.134763,-0.0483 -0.190574,-0.0483 -0.01307,0 0.01497,0.0218 0.02492,0.0303 0.153717,0.13094 -0.06605,-0.0615 0.111315,0.093 0.03164,0.0276 0.38031,0.33838 0.382926,0.37754 7.94e-4,0.0113 -0.01426,0.0178 -0.02138,0.0266"
         id="path2860-3-6" />
      <path
         style="fill:#a4c639;fill-opacity:1;stroke:none;stroke-width:0.132292;stroke-linecap:round;stroke-miterlimit:3;stroke-dasharray:none;stroke-opacity:1;paint-order:markers stroke fill"
         d="m 74.949496,108.56744 c -0.05506,-0.0409 -0.122116,-0.0417 -0.187902,-0.0483 -0.09775,-0.01 -0.195421,-0.0187 -0.292984,-0.0303 -0.03318,-0.004 -0.03311,-0.004 -0.07124,-0.006 -0.01603,-5.3e-4 -0.06406,-0.003 -0.04809,-0.002 0.08647,0.008 0.243163,0.21652 0.284969,0.27994 0.04036,0.0612 0.05635,0.16317 0.122897,0.20407 0.143856,0.0884 0.345659,0.0438 0.469307,-0.0548 0.02789,-0.0222 0.08039,-0.0542 0.09529,-0.0936"
         id="path2862-7-3" />
      <path
         style="fill:#a4c639;fill-opacity:1;stroke:none;stroke-width:0.132292;stroke-linecap:round;stroke-miterlimit:3;stroke-dasharray:none;stroke-opacity:1;paint-order:markers stroke fill"
         d="m 74.860442,108.28811 c -0.100737,0.0158 -0.160305,-0.0303 -0.228867,-0.10158 -0.09545,-0.0993 -0.199985,-0.21153 -0.206602,-0.35612 -2.65e-4,-0.006 0.02638,-0.0997 0.04096,-0.0783 0.02019,0.0296 0.02037,0.10527 0.03384,0.13982 0.04954,0.12706 0.108347,0.25656 0.187902,0.36806 0.108744,0.1524 0.267195,0.24338 0.392721,0.37815"
         id="path2864-5-2" />
      <path
         style="fill:#a4c639;fill-opacity:1;stroke:none;stroke-width:0.132292;stroke-linecap:round;stroke-miterlimit:3;stroke-dasharray:none;stroke-opacity:1;paint-order:markers stroke fill"
         d="m 74.628905,109.44214 c -0.112119,-0.0612 -0.152958,-0.18781 -0.172762,-0.30931 -0.02344,-0.14375 -0.01513,-0.16115 -0.01513,-0.26832 0,-0.011 0.009,-0.10629 -0.01781,-0.11595 -0.01979,-0.007 -0.0065,0.0423 -0.0027,0.063 0.01117,0.0609 0.02535,0.12127 0.04007,0.18143 0.05176,0.21163 0.151336,0.39437 0.25024,0.58742"
         id="path2868-9-0" />
      <path
         style="fill:#a4c639;fill-opacity:1;stroke:none;stroke-width:0.132292;stroke-linecap:round;stroke-miterlimit:3;stroke-dasharray:none;stroke-opacity:1;paint-order:markers stroke fill"
         d="m 72.966978,113.03933 c -0.164639,-0.30879 -0.370425,-0.79123 -0.380605,-1.13761 0.0106,-0.0263 0.0226,-0.0526 0.03989,-0.0751 0.0083,-0.0105 0.147436,-0.13732 0.181672,-0.12331 0.01207,0.005 0.01203,0.0329 9.02e-4,0.0387 -0.03907,0.0206 -0.03686,-0.019 -0.04793,-3.9e-4 -0.03485,0.0585 -0.04753,0.17905 -0.05828,0.23315 0.0622,0.23754 0.07546,0.47962 0.180403,0.67968 0.106026,0.20214 0.146472,0.20783 0.343787,0.30077 0.101856,0.048 0.199694,0.10863 0.291139,0.17455 0.0059,0.004 -0.01464,-0.004 -0.02192,-0.006 -0.0259,-0.007 -0.04883,-0.0144 -0.06865,-0.0256"
         id="path2890-2-6"
         sodipodi:nodetypes="cccccccssccc" />
      <path
         style="fill:#a4c639;fill-opacity:1;stroke:none;stroke-width:0.132292;stroke-linecap:round;stroke-miterlimit:3;stroke-dasharray:none;stroke-opacity:1;paint-order:markers stroke fill"
         d="m 73.620709,113.42694 c 0.06433,0.10986 0.125077,0.22145 0.193691,0.32905 0.04306,0.0675 0.08814,0.14202 0.142928,0.2007 0.0024,0.003 0.02898,0.0318 0.03562,0.0295 0.004,-10e-4 -0.01506,-0.0223 -0.0236,-0.0419 -0.01662,-0.0381 -0.0284,-0.0768 -0.04185,-0.11595 -0.02804,-0.0815 -0.05572,-0.1631 -0.08327,-0.24476 -0.03383,-0.10033 -0.09796,-0.23652 -0.08148,-0.34695"
         id="path2894-2-1" />
      <path
         style="fill:#a4c639;fill-opacity:1;stroke:none;stroke-width:0.132292;stroke-linecap:round;stroke-miterlimit:3;stroke-dasharray:none;stroke-opacity:1;paint-order:markers stroke fill"
         d="m 75.488547,113.4407 c -0.227152,-0.0292 -0.430868,-0.1507 -0.642127,-0.23199 -0.06534,-0.0251 -0.13351,-0.0551 -0.204256,-0.0594 -0.105344,-0.006 -0.174077,0.0661 -0.270738,0.0917 -0.08331,0.0221 -0.184291,-0.0483 -0.262305,-0.07 -0.0503,-0.014 -0.104186,-0.0176 -0.151356,-0.0421 -0.09057,-0.0469 -0.171358,-0.10448 -0.269302,-0.13774 -0.0062,-0.002 -0.07483,-0.0214 -0.07441,-0.005 0.0012,0.0458 0.05929,0.10119 0.08737,0.13225 0.05827,0.0644 0.193582,0.23333 0.299178,0.22465 0.0669,-0.005 0.11199,-0.0588 0.183741,-0.0506 0.112202,0.0121 0.2207,0.0595 0.334948,0.0547 0.08526,-0.004 0.160039,-0.0498 0.24649,-0.0397 0.191187,0.0224 0.276601,0.15605 0.443309,0.216 0.06809,0.0244 0.135507,0.031 0.206689,0.0181 0.04263,-0.008 0.07304,-0.0278 0.117567,-0.0183"
         id="path2898-8-5" />
      <path
         style="fill:#a4c639;fill-opacity:1;stroke:none;stroke-width:0.132292;stroke-linecap:round;stroke-miterlimit:3;stroke-dasharray:none;stroke-opacity:1;paint-order:markers stroke fill"
         d="m 73.404215,113.56537 c 0.08142,0.0693 0.188257,0.0916 0.283696,0.13561 0.07702,0.0355 0.158575,0.0823 0.240319,0.10538 0.0426,0.012 0.08759,0.0112 0.13061,0.0235 0.03414,0.01 0.06573,0.0265 0.09935,0.0374 0.110551,0.0361 0.230762,0.0639 0.345452,0.0794 0.06479,0.009 0.236382,0.0251 0.286999,-0.0387 0.01329,-0.0168 -0.110158,-0.0195 -0.134122,-0.0229 -0.06546,-0.009 -0.131974,-0.0186 -0.196314,-0.0339 -0.235715,-0.0562 -0.125018,-0.036 -0.279245,-0.0688 -0.112152,-0.0238 -0.207515,-0.0395 -0.318052,-0.0787 -0.114301,-0.0405 -0.219193,-0.10803 -0.329859,-0.15716 -0.06399,-0.0284 -0.177786,-0.0464 -0.203137,-0.12368"
         id="path2900-9-5" />
      <path
         style="fill:#a4c639;fill-opacity:1;stroke:none;stroke-width:0.132292;stroke-linecap:round;stroke-miterlimit:3;stroke-dasharray:none;stroke-opacity:1;paint-order:markers stroke fill"
         d="m 72.962323,113.30723 c -0.07415,0.0543 -0.143526,-0.0194 -0.162967,-0.0916 -0.0089,-0.0332 -0.0079,-0.0684 -0.01916,-0.10111 -0.02818,-0.0818 -0.104505,-0.10767 -0.160295,-0.1643 -0.02704,-0.0275 -0.05062,-0.0581 -0.07302,-0.0893 -0.0558,-0.0778 -0.103404,-0.1626 -0.122893,-0.25715 -0.0054,-0.0264 -0.009,-0.0536 -0.01336,-0.0802 -7.94e-4,-0.005 -0.0057,-0.0181 -7.94e-4,-0.0159 0.02283,0.0105 0.03918,0.0463 0.05388,0.0646 0.02901,0.0361 0.07054,0.0726 0.09128,0.11458 0.02344,0.0474 0.02622,0.092 0.05967,0.13599 0.08101,0.10645 0.215884,0.16119 0.285414,0.2778 0.0045,0.008 0.06595,0.16755 0.06724,0.17654 0.0013,0.0101 -0.01378,0.0252 -0.0049,0.0301 0.02029,0.0113 0.04631,0.004 0.06946,0.006"
         id="path2904-7-4" />
    </g>
  </g>
</svg>
