<?xml version="1.0" encoding="UTF-8" standalone="no"?>
<!-- Created with Inkscape (http://www.inkscape.org/) -->

<svg
   width="512"
   height="512"
   viewBox="0 0 135.46667 135.46667"
   version="1.1"
   id="svg1157"
   inkscape:version="1.2.2 (b0a84865, 2022-12-01)"
   sodipodi:docname="quillpad-icon.svg"
   inkscape:export-filename="quillpad-icon.png"
   inkscape:export-xdpi="96"
   inkscape:export-ydpi="96"
   xmlns:inkscape="http://www.inkscape.org/namespaces/inkscape"
   xmlns:sodipodi="http://sodipodi.sourceforge.net/DTD/sodipodi-0.dtd"
   xmlns="http://www.w3.org/2000/svg"
   xmlns:svg="http://www.w3.org/2000/svg">
  <sodipodi:namedview
     id="namedview1159"
     pagecolor="#ffffff"
     bordercolor="#000000"
     borderopacity="0.25"
     inkscape:showpageshadow="2"
     inkscape:pageopacity="0.0"
     inkscape:pagecheckerboard="0"
     inkscape:deskcolor="#d1d1d1"
     inkscape:document-units="mm"
     showgrid="false"
     inkscape:zoom="0.73950573"
     inkscape:cx="193.3724"
     inkscape:cy="256.25224"
     inkscape:window-width="1433"
     inkscape:window-height="819"
     inkscape:window-x="58"
     inkscape:window-y="50"
     inkscape:window-maximized="0"
     inkscape:current-layer="layer1" />
  <defs
     id="defs1154" />
  <g
     inkscape:label="Layer 1"
     inkscape:groupmode="layer"
     id="layer1">
    <rect
       style="fill:#1a1a1a;fill-opacity:1;stroke:none;stroke-width:5.96857;stroke-linecap:round;stroke-miterlimit:3;paint-order:markers stroke fill"
       id="rect4680"
       width="135.46666"
       height="135.46666"
       x="0"
       y="0" />
    <g
       id="g4744"
       transform="matrix(6.0000002,0,0,6.0000002,-17.895395,-20.541228)">
      <path
         id="path3365"
         style="color:#000000;fill:#a4c639;stroke-width:1.06667;stroke-linecap:round;stroke-miterlimit:3;paint-order:markers stroke fill"
         d="M 25.4,4.2333333 C 13.757004,4.2333333 4.2333333,13.757004 4.2333333,25.4 c 0,11.642996 9.5236707,21.166667 21.1666667,21.166667 3.654637,0 7.100412,-0.93871 10.108427,-2.586406 -0.363101,-0.316779 -0.784835,-0.729422 -1.172022,-1.194759 -0.429054,-0.515662 -1.004602,-1.197181 -1.357539,-2.035535 -0.20998,-0.49878 -0.106586,-0.993916 -0.03101,-1.406115 -0.06107,0.118156 -0.140102,0.252945 -0.183452,0.345715 -0.03967,0.0849 -0.06521,0.154827 -0.136942,0.248047 -0.03587,0.04661 -0.08639,0.1142 -0.21084,0.15658 -0.124454,0.04239 -0.299508,-0.0038 -0.378788,-0.0646 C 31.526872,39.637953 31.231807,39.315845 30.639469,38.529427 30.470907,38.305638 30.29191,38.036815 30.126839,37.771851 28.6615,38.325838 27.068994,38.629167 25.4,38.629167 18.04674,38.629167 12.170833,32.75326 12.170833,25.4 c 0,-7.35326 5.875907,-13.229167 13.229167,-13.229167 7.35326,0 13.229167,5.875907 13.229167,13.229167 0,2.485947 -0.673714,4.801668 -1.846916,6.779948 0.804253,0.582236 1.708488,1.631072 2.409672,2.378666 0.475088,0.506526 0.883786,1.048611 1.156519,1.46141 0.136366,0.206399 0.236447,0.37527 0.302307,0.513663 0.03293,0.0692 0.06299,0.109233 0.07648,0.238229 0.0034,0.03225 0.0074,0.07272 -0.0078,0.136425 -0.01517,0.06371 -0.063,0.16369 -0.156579,0.22686 -0.09359,0.06315 -0.20004,0.06926 -0.26355,0.06046 -0.02866,-0.004 -0.05134,-0.01006 -0.0708,-0.01654 -0.06599,-0.01039 -0.128655,0.0053 -0.198437,-0.0031 0.234614,0.116708 0.47025,0.208788 0.700732,0.373104 0.369944,0.263743 0.712859,0.555593 0.941545,0.784965 0.08819,0.08845 0.169989,0.174091 0.248563,0.258382 C 44.824302,34.967964 46.566667,30.378161 46.566667,25.4 46.566667,13.757004 37.042996,4.2333333 25.4,4.2333333 Z M 36.394161,32.798515 c -0.402583,0.600109 -0.85546,1.162783 -1.348755,1.686719 0.232291,0.26368 0.458317,0.522936 0.673344,0.774629 0.992938,1.162257 2.109878,2.46287 3.037024,3.689181 0.474399,0.627474 0.846675,1.153726 1.244885,1.741496 0.509177,-0.48653 0.99358,-0.998758 1.452625,-1.53324 -0.09105,-0.09914 -0.189619,-0.2017 -0.29714,-0.309542 -0.187607,-0.18817 -0.512269,-0.467943 -0.847493,-0.706934 -0.335226,-0.23899 -0.699737,-0.437492 -0.890902,-0.488342 -0.01648,-0.0044 -0.212958,-0.0519 -0.388607,-0.101286 -0.08783,-0.02469 -0.173924,-0.05107 -0.251664,-0.0801 -0.03887,-0.01452 -0.07456,-0.02727 -0.12299,-0.05478 -0.02422,-0.01376 -0.05093,-0.02958 -0.09405,-0.07235 -0.02156,-0.02138 -0.04823,-0.04972 -0.0739,-0.101286 -0.01283,-0.02578 -0.03341,-0.09521 -0.03359,-0.09612 -2e-4,-9.07e-4 -0.0017,-0.124193 -0.0016,-0.125057 v -0.0016 c 0.03794,-0.246108 0.206125,-0.356378 0.345198,-0.429948 0.139073,-0.07357 0.291773,-0.119079 0.463021,-0.150379 0.147931,-0.02703 0.334416,0.01646 0.502295,0.0155 -0.0099,-0.0152 -0.01137,-0.0195 -0.0217,-0.03514 -0.249483,-0.377608 -0.640158,-0.894236 -1.080037,-1.363224 -0.70155,-0.747985 -1.607325,-1.762911 -2.266012,-2.25826 z m -1.869653,2.209167 c -23.016339,-23.338455 -11.508169,-11.669227 0,0 z m -0.532784,0.479558 c -0.951648,0.809636 -2.020761,1.484962 -3.180168,1.999878 0.138784,0.219544 0.282827,0.435185 0.409277,0.603063 0.461046,0.612108 0.690154,0.814912 0.997872,1.080038 0.07185,-0.151155 0.134217,-0.298727 0.271302,-0.510046 0.192975,-0.297471 0.418679,-0.576732 0.615466,-0.784965 0.09839,-0.104117 0.187435,-0.189626 0.275435,-0.257866 0.044,-0.03412 0.08349,-0.06462 0.153996,-0.0956 0.03526,-0.01549 0.07886,-0.03371 0.15658,-0.03721 0.07772,-0.0035 0.215804,0.02943 0.302823,0.125057 0.10781,0.118443 0.09883,0.209172 0.09922,0.259932 3.9e-4,0.05076 -0.0056,0.08073 -0.01137,0.109037 -0.01158,0.05662 -0.0275,0.101836 -0.04496,0.152446 -0.03491,0.101228 -0.08054,0.217496 -0.131258,0.343648 -0.101436,0.252305 -0.219046,0.550157 -0.259416,0.715202 -0.07425,0.305138 -0.123784,0.976365 0.0036,1.278992 0.296671,0.704699 0.814506,1.332866 1.244369,1.849499 0.377328,0.45349 0.806856,0.870444 1.154451,1.168404 0.04913,0.04212 0.09061,0.07541 0.131775,0.108004 0.07227,-0.04309 0.144806,-0.08578 0.216525,-0.129708 0.01677,-0.08221 0.03691,-0.16825 0.06563,-0.261483 0.06901,-0.224169 0.177868,-0.441577 0.337963,-0.6196 0.04265,-0.04743 0.131151,-0.119007 0.26355,-0.126607 0.1324,-0.0076 0.241599,0.06344 0.290939,0.113171 0.09868,0.09946 0.09729,0.146233 0.111621,0.191203 1.71e-4,5.39e-4 3.46e-4,10e-4 5.16e-4,0.0016 0.491238,-0.343053 0.96795,-0.705979 1.42782,-1.088305 -0.509511,-0.693111 -0.974238,-1.319438 -1.596285,-2.04587 -0.825001,-0.963453 -1.518082,-1.873726 -2.297017,-2.863391 -0.339596,-0.431468 -0.675271,-0.856101 -1.010274,-1.278475 z m 6.408911,0.987536 c -9e-4,-10e-5 -0.0032,0.0022 -0.0041,0.0021 0.0027,6.47e-4 0.0051,-6.55e-4 0.0078,0 -0.0022,-4e-4 -0.0013,-0.0017 -0.0036,-0.0021 z"
         sodipodi:nodetypes="ssscsscssscscsssscssscscsccsscssccssccsssssssscccssccscccccscssssccsccscssscccscssccsscccccccc"
         transform="matrix(0.40909137,0,0,0.40909137,3.8965788,3.8965788)" />
      <path
         style="color:#000000;fill:#a4c639;stroke-width:0.727604;stroke-linecap:square;stroke-miterlimit:3;paint-order:markers stroke fill"
         d="m 25.47969,24.341667 c -0.0019,3.59e-4 -0.0032,0.0017 -0.0036,0.0036 L 25.4,24.702414 c 0,0 0.607264,0.90881 0.865624,1.257663 0.05932,0.08009 0.170992,0.236786 0.303011,0.424618 -0.05542,0.05206 -0.09297,0.121458 -0.141433,0.180374 -0.02599,0.03161 -0.0551,0.06358 -0.08236,0.09671 -0.06377,0.02034 -0.132422,0.04122 -0.191119,0.07287 -0.003,0.0013 -0.03313,0.01729 -0.03267,0.02339 -4.9e-5,0.0036 0.02198,-0.0075 0.04028,-0.01034 0.03558,-0.0055 0.07031,-0.0068 0.106069,-0.0094 0.0076,-5.53e-4 0.01523,-0.0012 0.02283,-0.0018 -0.0015,0.0024 -0.003,0.0047 -0.0045,0.0072 -0.01949,0.03317 -0.0285,0.07134 -0.04834,0.104806 -0.01594,0.0265 -0.03713,0.04925 -0.05371,0.07512 -0.05473,0.08498 -0.10438,0.179979 -0.142777,0.273033 -0.0219,0.05251 -0.07353,0.19329 -0.03133,0.250092 0.01112,0.01492 0.04063,-0.0881 0.04879,-0.107503 0.02204,-0.05307 0.04499,-0.107153 0.07206,-0.157884 0.0993,-0.185824 0.05786,-0.09704 0.119504,-0.219506 0.04143,-0.0824 0.07398,-0.154177 0.123981,-0.231201 0.03902,-0.0027 0.07824,-0.0055 0.117272,-0.0081 0.0915,-0.0061 0.219574,-0.02947 0.308383,0.009 l -0.128009,-0.161933 c -0.07396,0.02064 -0.148172,0.03969 -0.222002,0.06072 0.04651,-0.05432 0.09714,-0.105593 0.141436,-0.161031 0.006,-0.0075 0.01212,-0.01643 0.01835,-0.02564 0.06695,0.09557 0.137546,0.197022 0.213944,0.308118 -0.0726,0.03975 -0.154684,0.09465 -0.165605,0.156083 -0.01064,0.0574 0.02456,0.107433 0.0018,0.16598 -0.035,0.09171 -0.09866,0.172231 -0.119958,0.269434 -0.01555,0.07263 0.0061,0.145864 -0.02148,0.216357 -0.06113,0.155886 -0.192147,0.197839 -0.279291,0.324762 -0.03552,0.05186 -0.05589,0.107259 -0.06087,0.170028 -0.0027,0.03766 0.0071,0.06766 -0.01074,0.103006 l 0.07922,-0.01935 c 0.07479,-0.184634 0.221697,-0.328834 0.336582,-0.488491 0.0355,-0.0494 0.07561,-0.100206 0.09489,-0.158782 0.02837,-0.0873 -0.017,-0.161256 -0.01701,-0.248294 -4e-5,-0.07502 0.08136,-0.1443 0.116823,-0.205112 0.02287,-0.0392 0.03796,-0.08361 0.06893,-0.117848 0.01761,-0.01953 0.03595,-0.03778 0.05415,-0.05623 0.06201,0.09082 0.125974,0.185815 0.19022,0.28158 -0.241492,0.453039 -0.506428,0.89341 -0.580059,1.411948 -0.01739,0.122469 -0.0043,0.237677 8.93e-4,0.360745 4.12e-4,0.0052 0.01037,0.07619 0.01119,0.07512 0.02687,-0.03978 0.03643,-0.147607 0.05013,-0.191168 0.05626,-0.177191 0.174158,-0.542488 0.291827,-0.687306 0.176309,-0.410069 0.208224,-0.52661 0.355827,-0.774119 0.102915,0.155531 0.204469,0.311738 0.301666,0.4651 -0.05292,0.0871 -0.122048,0.202805 -0.199174,0.250093 -0.05461,0.03336 -0.126358,0.02556 -0.18664,0.04318 -0.03145,0.0092 -0.06035,0.02561 -0.09085,0.03734 -0.03281,0.01266 -0.07523,0.02437 -0.09892,0.05308 -0.0024,0.0029 -0.01233,0.02611 -0.02193,0.03823 0.01528,-0.0043 0.04168,-0.01052 0.06714,-0.01664 0.06327,-0.01523 0.125494,-0.01632 0.190669,-0.02429 0.166977,-0.0204 0.286502,-0.160666 0.407302,-0.273932 0.05415,0.08659 0.107941,0.173186 0.157099,0.25504 0.01487,0.02475 0.02917,0.05058 0.04387,0.07602 -0.02221,0.01604 -0.03859,0.03315 -0.05819,0.06072 -0.05491,0.07716 -0.09427,0.164111 -0.150385,0.241097 -0.183087,0.251404 -0.476265,0.422382 -0.746115,0.561361 -0.07556,0.03888 -0.148886,0.06522 -0.216632,0.1165 -0.03739,0.02834 -0.0763,0.06024 -0.07161,0.06522 0.01516,0.01592 0.04176,0.0134 0.0631,0.01844 0.209016,0.04858 0.404582,-0.107578 0.572911,-0.203762 0.241483,-0.137985 0.541997,-0.211401 0.653469,-0.501985 0.02304,-0.06011 0.0365,-0.121568 0.05058,-0.183072 0.04252,0.07975 0.08296,0.162173 0.123081,0.244694 -0.157877,0.112935 -0.298273,0.267025 -0.410881,0.413374 -0.15272,0.198467 -0.311748,0.41251 -0.405956,0.647722 -0.02636,0.06606 -0.06005,0.149129 -0.06042,0.222656 -2.1e-5,0.01022 0.0064,0.02962 0.01119,0.04364 0.0027,-0.06889 0.162124,-0.311585 0.179027,-0.337357 0.09861,-0.147554 0.216454,-0.339507 0.37955,-0.41967 l 0.373729,-0.432266 c 0.04363,0.09402 0.08553,0.187188 0.124877,0.279781 -0.167798,0.06992 -0.282972,0.225362 -0.403267,0.357598 -0.17366,0.190883 -0.343769,0.389919 -0.442661,0.632879 -0.07296,0.179353 -0.114012,0.368258 -0.164262,0.554614 -0.01711,0.06314 -0.138278,0.440046 -0.121296,0.48714 0.0042,0.01125 0.01183,-0.02075 0.01567,-0.03194 0.01113,-0.02863 0.01796,-0.05814 0.0282,-0.08681 0.035,-0.09649 0.272343,-0.766507 0.336576,-0.84519 0.239442,-0.467265 0.287198,-0.496833 0.485176,-0.742183 0.0172,-0.0194 0.03374,-0.03911 0.05237,-0.05712 0.05987,-0.05792 0.142366,-0.134424 0.217973,-0.174075 0.0096,-0.005 0.02006,-0.0073 0.03088,-0.009 0.02119,0.0512 0.04355,0.103364 0.06311,0.152936 -0.247992,0.32781 -0.589317,0.995032 -0.658839,1.315238 -0.01115,0.05134 -0.06354,0.344525 -0.0045,0.39718 0.01981,0.01731 0.03616,-0.03839 0.0452,-0.06253 0.03971,-0.100085 0.07209,-0.203232 0.117715,-0.300921 0.138596,-0.296379 0.302565,-0.585002 0.496814,-0.848338 0.04059,-0.05495 0.08658,-0.105984 0.129359,-0.15923 0.04867,0.139996 0.08895,0.265145 0.113231,0.358045 l -0.01835,-0.0094 c -0.177634,0.111988 -0.305072,0.301646 -0.348212,0.508734 -0.04585,0.08563 -0.108526,0.171025 -0.158894,0.25459 -0.07315,0.121569 -0.129531,0.236146 -0.205437,0.3549 -0.13376,0.20917 -0.228512,0.318311 -0.452062,0.567206 -0.0028,0.003 -0.02245,0.03841 -0.04073,0.06973 0.03431,-0.01749 0.06798,-0.03601 0.102492,-0.05307 0.120568,-0.05959 0.218675,-0.158067 0.298542,-0.265836 0.05257,-0.07101 0.08673,-0.157375 0.134272,-0.232101 0.135494,-0.212697 0.277675,-0.42588 0.396114,-0.648622 0.04636,-0.08724 0.08192,-0.286443 0.133827,-0.335556 0.06676,-0.06255 0.105287,-0.08869 0.178138,-0.119649 0.0022,0.01131 0.0067,0.02834 0.0081,0.03779 0.01671,0.114881 0.02964,0.226177 0.04028,0.335105 -0.0086,0.02635 -0.01278,0.04108 -0.02775,0.06702 -0.04505,0.07716 -0.108574,0.14165 -0.15083,0.220407 -0.15408,0.286996 -0.249694,0.607788 -0.362544,0.912209 -0.07255,0.195842 -0.171837,0.38986 -0.192912,0.600493 -0.0043,0.04006 -0.01102,0.116376 0.004,0.159232 0.02806,0.07975 0.08557,0.195681 0.08728,0.299573 0.0091,-0.03111 0.01716,-0.06232 0.02551,-0.09401 0.0429,-0.169674 0.06749,-0.344252 0.109215,-0.514579 0.08594,-0.350081 0.233053,-0.479677 0.459217,-0.745332 0.02883,-0.03386 0.05713,-0.06908 0.08459,-0.105255 -0.0053,1.051686 -0.192114,1.72606 0.175008,2.023235 0.293924,-0.18078 0.343339,-0.215762 0.621689,-0.332857 0.405217,-0.170468 0.503329,-0.183039 0.597968,-0.202865 0.02331,0.115945 -0.344903,0.401198 -0.632431,0.811455 -0.381178,0.543817 -0.464571,0.589659 -0.375972,0.825396 0.129663,0.344979 0.537493,1.515586 0.885767,2.252638 0.153165,0.324126 0.633487,1.145462 1.013777,1.650346 0.58714,0.779517 0.838489,1.055425 1.328865,1.431287 0.10997,0.08429 0.182078,-0.335948 0.536648,-0.882525 0.356436,-0.549446 0.869387,-1.071073 0.929628,-1.004869 0.05211,0.05726 -0.326019,0.820318 -0.431018,1.249566 -0.08675,0.356548 -0.172454,1.047407 0.02059,1.505958 0.324805,0.771528 0.872105,1.42657 1.301565,1.942719 0.787537,0.946497 1.759546,1.706658 1.925049,1.723214 0.121126,0.01213 0.130324,-0.512563 0.269892,-0.965737 0.05462,-0.177436 0.149238,-0.357584 0.260492,-0.481295 0.07442,-0.08276 0.111862,0.499636 0.134274,0.627482 0.04032,0.229806 0.07899,0.457874 0.138751,0.683258 0.332082,1.252452 1.53746,2.240959 2.52078,2.935446 0.177458,0.125317 0.240441,-0.234373 0.403271,-0.667965 0.137913,-0.36726 0.341847,-0.683768 0.390739,-0.743533 0.02558,-0.03127 0.01031,0.836989 0.02283,1.130368 0.01031,0.241685 0.117642,0.602391 0.186641,0.714744 0.549394,0.894631 2.52136,1.183659 2.90212,1.354821 0.324168,0.145717 0.713954,0.36742 1.048236,0.925255 0.186145,0.310629 0.158964,1.077783 0.276158,1.007569 0.03219,-0.01929 0.058,-0.06626 0.07788,-0.131345 0.08612,-0.282015 0.06994,-0.907261 0.06938,-1.11957 -0.0067,-2.464553 -0.847622,-5.528857 -2.309522,-7.365603 -0.197209,-0.247774 -0.453938,-0.435385 -0.713445,-0.600943 -0.03039,-0.01934 0.07176,0.0025 0.10742,0.0063 0.239344,0.02554 0.462566,0.01017 0.963643,0.292825 0.155384,0.08764 -0.04441,-0.553327 -0.132036,-0.728689 -0.54653,-1.093783 -0.870802,-1.682025 -1.744674,-2.558506 -0.416293,-0.417543 -1.335201,-1.138878 -1.901774,-1.2896 -0.08245,-0.02193 -0.70964,-0.170109 -0.70136,-0.225353 0.03703,-0.240193 0.827888,-0.417716 1.524015,-0.245595 0.186755,0.09428 -0.493572,-1.045919 -1.40854,-2.021436 -0.737654,-0.786478 -1.700768,-1.888123 -2.447374,-2.397474 -0.150847,-0.102915 -0.573876,-0.0029 -1.032571,-0.0094 -0.490571,-0.0069 -1.020924,-0.118164 -1.269793,-0.174527 -0.128149,-0.02904 0.254423,-0.398591 0.77029,-0.46735 0.440187,-0.07349 0.681355,-0.08704 0.650787,-0.120998 -1.100708,-1.221729 -2.520457,-2.012238 -4.813745,-2.922851 -0.02392,-0.0095 -0.04155,-0.01692 -0.06445,-0.02609 0.01969,-0.03771 0.05253,-0.06373 0.09399,-0.08861 -0.0174,0.0055 -0.03451,0.01111 -0.05147,0.01755 -0.03511,0.01332 -0.06817,0.02957 -0.09982,0.04768 -0.0445,-0.01797 -0.08943,-0.03577 -0.130243,-0.05263 0.01184,-0.03163 0.02361,-0.06327 0.03536,-0.09491 0.129566,0.008 0.259087,0.01093 0.390292,0.0067 -0.04219,0.01816 -0.08274,0.04076 -0.121743,0.06252 -0.0078,0.0043 -0.01513,0.0087 -0.02238,0.01305 0.09645,-0.03039 0.198666,-0.04713 0.298093,-0.05847 0.03191,-0.0036 0.09562,0.01309 0.124875,0.0027 0.0152,-0.0054 -0.01807,-0.02932 -0.03984,-0.04273 0.114634,-0.02928 0.230665,-0.08868 0.34106,-0.08187 0.190632,0.01177 0.3156,0.162118 0.470408,0.248294 0.115504,0.0643 0.56191,0.1087 0.686146,0.03868 0.01283,-0.0072 -0.02842,-0.0077 -0.04252,-0.0117 -0.06062,-0.01717 -0.121159,-0.03579 -0.180377,-0.05757 -0.167141,-0.06133 -0.325827,-0.126656 -0.47667,-0.222204 -0.333623,-0.211354 -0.695625,-0.323395 -1.092998,-0.284279 -0.113475,0.01117 -0.223347,0.05086 -0.33658,0.06567 -0.157516,0.0206 -0.316568,0.03088 -0.475782,0.03283 -0.0023,-2.33e-4 -0.0043,-6.63e-4 -0.0067,-9e-4 -0.04507,-0.0044 -0.09188,-0.0055 -0.13651,4.5e-4 -0.07661,-0.0013 -0.15334,-0.0045 -0.229611,-0.009 -0.163233,-0.09501 -0.355091,-0.218249 -0.574692,-0.362094 0.07606,-0.05106 0.164493,-0.08805 0.265868,-0.107053 0.308997,-0.05793 0.659112,0.0857 1.026748,0.05983 0.2893,-0.02036 0.392897,-0.20084 0.735374,-0.163281 0.108306,0.01189 0.208325,0.06082 0.311072,0.09311 0.129225,0.04058 0.240985,0.03021 0.36881,10e-7 0.02281,-0.0054 0.0388,-0.0073 0.05057,-0.0076 0.0047,-0.01219 0.01237,-0.02573 0.009,-0.03463 -0.0063,-0.01777 -0.03634,0.0094 -0.05505,0.01079 -0.04864,0.0035 -0.09754,0.0068 -0.146363,0.004 -0.137028,-0.0076 -0.289608,-0.07072 -0.414016,-0.125497 -0.123532,-0.0544 -0.2855,-0.09744 -0.420279,-0.09356 -0.226786,0.0065 -0.272636,0.0222 -0.461899,0.07602 -0.265724,0.07555 -0.499477,-0.04493 -0.628854,-0.03779 -0.422414,0.02333 -0.345092,-0.07341 -0.762676,0.11965 -0.05576,0.02579 -0.102891,0.02813 -0.137413,0.03643 -0.05042,-0.03297 -0.08062,-0.05272 -0.136514,-0.08906 -0.02947,-0.01917 -0.05683,-0.03842 -0.08549,-0.05757 0.116604,-0.04518 0.201615,-0.121326 0.363884,-0.203314 0.238447,-0.120473 0.558305,-0.09416 0.817286,-0.150234 0.126752,-0.02746 0.325405,-0.09968 0.47936,-0.124148 -0.0566,-0.0062 -0.113346,-0.01303 -0.171422,-0.02429 -0.251075,-0.04867 -0.158962,0.01007 -0.38492,0.05038 -0.174676,0.03117 -0.38131,-3.2e-5 -0.611849,0.04678 -0.239363,0.0486 -0.495233,0.145766 -0.708073,0.25549 -0.07318,-0.05254 -0.143578,-0.105104 -0.211255,-0.157431 0.04428,-0.02108 0.07365,-0.05532 0.104735,-0.09805 0.0012,-0.0018 0.03772,-0.0507 0.0443,-0.06208 0.02241,-0.03847 0.06999,-0.102823 0.08236,-0.149786 0.0029,-0.01099 -0.02156,0.0079 -0.03089,0.01439 -0.07185,0.05009 -0.05503,0.03968 -0.04162,0.03103 -0.0087,0.006 -0.02512,0.0175 -0.06088,0.04183 -0.01562,0.01061 -0.113808,0.07579 -0.209468,0.135392 -0.05425,-0.04369 -0.10675,-0.08746 -0.157544,-0.130894 0.0021,-2.59e-4 0.0042,-1.27e-4 0.0063,-4.5e-4 0.294838,-0.04557 0.85141,-0.386188 1.06077,-0.606789 0.05401,-0.05692 0.175855,-0.107648 0.149493,-0.181722 -0.0029,-0.0081 -0.198494,0.07578 -0.342847,0.137191 -0.384726,0.163695 -0.813459,0.378165 -1.234436,0.295522 l 0.09623,-0.01574 c 0.06754,-0.04111 0.100542,-0.115917 0.150834,-0.174976 0.0263,-0.03085 0.05622,-0.06364 0.08549,-0.09356 -0.09286,0.04588 -0.169533,0.107595 -0.259598,0.157883 -0.02868,0.01601 -0.05908,0.02862 -0.08862,0.04318 0.0099,-0.07187 0.01555,-0.02288 0.167403,-0.228051 0.05534,-0.07472 0.09797,-0.13716 0.08817,-0.2357 -1.82e-4,-0.0019 -6.77e-4,-0.0039 -8.97e-4,-0.0058 0.08139,0.0054 0.164324,0.01192 0.248403,0.01214 0.04292,0.02109 0.141362,0.05885 0.18262,0.101208 0.01313,0.01346 -0.01978,0.0026 -0.01119,0.04004 0.0024,0.01065 0.02581,0.01713 0.03267,0.0081 0.01932,-0.02569 -0.05616,-0.171053 -0.06311,-0.180375 -0.01501,-0.01956 -0.03404,-0.03561 -0.05371,-0.05038 -0.199491,-0.04681 -0.472375,-0.03105 -0.719262,0.0058 0.0095,-0.0067 0.01855,-0.01207 0.02775,-0.01664 -0.05346,1.17e-4 -0.11524,-0.0068 -0.139641,-4.48e-4 -0.04224,0.01104 -0.08413,0.03154 -0.120403,0.05532 -0.003,0.0019 -0.0057,0.0039 -0.0085,0.0058 -0.02655,0.0056 -0.05241,0.01128 -0.07698,0.01709 l -0.02059,0.05083 c -0.03119,-0.03745 -0.06293,-0.07479 -0.09265,-0.111551 0.03718,-0.004 0.07328,-0.0084 0.07699,-0.0094 0.113046,-0.03253 0.188765,-0.133668 0.295849,-0.178123 0.04425,-0.01835 0.08179,-0.01062 0.126668,-0.01979 0.03975,-0.0081 0.07972,-0.03491 0.116371,-0.05127 0.01858,-0.0083 0.05239,-0.01416 0.06624,-0.03103 0.0029,-0.0036 -0.0095,-0.0027 -0.01388,-0.0031 -0.02324,-0.0022 -0.04652,-0.0049 -0.06982,-0.0063 -0.08348,-0.0046 -0.165079,0.01626 -0.242587,0.04588 -0.03109,0.0119 -0.06184,0.0252 -0.09086,0.04183 -0.05978,0.03433 -0.09848,0.09257 -0.173213,0.09805 -0.02988,0.0022 -0.0593,-0.0064 -0.08907,-0.0063 -0.02777,1.19e-4 -0.0576,0.0077 -0.08057,0.02249 -0.112735,-0.142605 -0.217346,-0.28064 -0.316884,-0.409774 -0.368885,-0.478553 -1.095948,-1.207653 -1.153417,-1.196488 z m 2.006952,1.686327 c 0.0381,-8.1e-5 0.07209,-0.0037 0.08505,-0.01844 0.001,-0.0012 -0.03747,8.68e-4 -0.03939,0.0013 -0.01682,0.0048 -0.03151,0.01006 -0.04565,0.01709 z m 0.449372,0.348602 c 0.0024,-0.0012 0.0048,-0.0024 0.0072,-0.0036 0.02772,-0.01335 0.135306,-0.04449 0.134269,-0.08681 -9.75e-4,-0.03878 -0.06926,0.01664 -0.141435,0.09041 z m 2.384717,0.687756 c 0.06886,0.0076 0.137453,0.01417 0.20768,0.02654 0.04032,0.0071 -0.07678,-0.03478 -0.117717,-0.03463 -0.02733,9.6e-5 -0.05757,0.0029 -0.08996,0.0081 z m 1.579069,0.668864 c -0.0019,0.0048 -0.0032,0.0095 -0.0031,0.0135 3.4e-4,0.03535 0.06254,-0.01482 0.0031,-0.0135 z m -3.934688,5.008161 c -0.0089,0.0302 -0.01864,0.06025 -0.02999,0.08997 -0.0059,0.01431 -0.02553,0.04914 -0.02551,0.05443 4.93e-4,6.8e-5 0.0019,-1.08e-4 0.0036,-0.0018 0.03945,-0.04018 0.05279,-0.08975 0.05192,-0.142589 z m -0.648996,-0.976983 c -0.0024,0.0012 -0.0048,0.0024 -0.0072,0.0036 -0.01006,0.0048 -0.02749,0.04482 -0.02282,0.04409 0.0019,-3.58e-4 0.01551,-0.02287 0.02998,-0.04768 z m -0.170973,-1.774491 c -2.17e-4,0.0055 7.27e-4,0.0099 0.0027,0.01304 0.005,0.0078 0.0017,-2.73e-4 -0.0027,-0.01304 z m 0.519638,-3.888589 c 0.04733,-5.33e-4 0.09549,0.0015 0.144121,0.0045 -0.01564,0.0422 -0.03487,0.08465 -0.05281,0.121898 -0.03839,0.07951 -0.153498,0.24295 -0.268547,0.340505 -0.07358,-0.07634 -0.140946,-0.150949 -0.206786,-0.225354 0.0075,-0.01982 0.01444,-0.03967 0.02327,-0.05892 0.01871,-0.0409 0.03889,-0.08748 0.06356,-0.130443 0.03013,-0.01142 0.06688,-0.0219 0.114586,-0.03283 0.05961,-0.01367 0.120335,-0.01864 0.18261,-0.01935 z m -0.740299,2.125792 c -0.0091,0.0026 -0.01413,0.0044 -0.01253,0.0058 0.0033,0.003 0.0079,-6e-6 0.01253,-0.0058 z m 2.899432,1.545089 c 0.866865,0.573455 1.862023,1.481754 2.747704,2.483839 0.955473,1.081044 2.003357,2.225141 2.870343,3.239965 0.993269,1.162645 2.106376,2.46064 3.023414,3.67358 0.790426,1.045475 1.278445,1.773762 2.120195,3.060942 0.849461,1.298972 1.724652,2.615457 2.37442,4.030278 0.05163,0.11242 0.418027,0.865341 0.402824,1.011618 -10e-4,0.0097 -0.0039,0.0167 -0.0085,0.02069 -0.01247,0.01078 -0.593699,-0.908118 -0.6293,-0.95989 -0.767577,-1.116235 -1.540535,-2.236598 -2.369946,-3.313284 -1.135149,-1.473578 -1.719651,-2.390091 -2.779034,-3.62725 -0.816834,-0.953916 -1.506967,-1.85985 -2.288041,-2.852233 -1.052828,-1.33765 -2.0678,-2.621261 -3.152315,-3.924571 -0.974928,-1.171612 -1.71776,-2.02354 -2.31176,-2.843685 z"
         id="path3994"
         transform="matrix(0.40909137,0,0,0.40909137,3.8965788,3.8965788)" />
    </g>
  </g>
</svg>
